<svg xmlns="http://www.w3.org/2000/svg" xmlns:svg="http://www.w3.org/2000/svg" xmlns:xlink="http://www.w3.org/1999/xlink" id="svg98" width="106.929" height="109.289" class="css-1j8o68f" version="1.1" viewBox="0 0 82.281 146.667"><metadata id="metadata102"/><defs id="SvgjsDefs5206"><linearGradient id="SvgjsLinearGradient5211"><stop id="SvgjsStop5212" offset="0" stop-color="#0df"/><stop id="SvgjsStop5213" offset="1" stop-color="#ff00d4"/></linearGradient><linearGradient id="linearGradient104" x1="5.702" x2="44.872" y1="20.179" y2="20.179" gradientTransform="scale(0.98914564,1.0109735)" gradientUnits="userSpaceOnUse" xlink:href="#SvgjsLinearGradient5211"/><linearGradient id="linearGradient106" x1="5.702" x2="44.872" y1="20.179" y2="20.179" gradientTransform="scale(0.98914564,1.0109735)" gradientUnits="userSpaceOnUse" xlink:href="#SvgjsLinearGradient5211"/></defs><g id="SvgjsG5207" fill="url(#SvgjsLinearGradient5211)" featurekey="monogramFeature-0" transform="matrix(3.4262524,0,0,3.5010222,-44.295122,-67.023101)" style="fill:url(#linearGradient106)"><path id="path94" d="m 30.84,20.4 c 0.42,0 0.66,0.48 0.42,0.84 L 21.84,34.26 31.8,59.34 C 31.92,59.64 31.74,60 31.32,60 h -8.1 C 23.04,60 22.86,59.88 22.8,59.64 L 16.56,41.7 13.5,45.9 v 13.56 c 0,0.3 -0.24,0.54 -0.54,0.54 H 6.12 C 5.82,60 5.64,59.76 5.64,59.46 V 20.94 c 0,-0.3 0.18,-0.54 0.48,-0.54 h 6.84 c 0.3,0 0.54,0.24 0.54,0.54 V 33.36 L 22.92,20.64 C 23.1,20.4 23.16,20.4 23.4,20.4 Z M 9.24,24 v 32.34 c 0,0.42 0.66,0.42 0.66,0 V 44.7 l 7.5,-9.96 8.4,21.72 c 0.12,0.3 0.84,0.12 0.66,-0.36 l -8.52,-22.14 7.8,-10.38 c 0.3,-0.3 -0.24,-0.84 -0.6,-0.48 L 9.9,43.5 V 24 c 0,-0.42 -0.66,-0.42 -0.66,0 z m 20.325,12.24 h 14.4 c 0.18,0 0.42,0.3 0.42,0.42 v 5.28 c 0,0.3 -0.24,0.42 -0.42,0.42 h -14.4 c -0.3,0 -0.6,-0.12 -0.6,-0.42 v -5.28 c 0,-0.3 0.3,-0.42 0.6,-0.42 z m 2.46,2.82 c -0.54,0 -0.54,0.72 0,0.72 h 9.42 c 0.48,0 0.48,-0.72 0,-0.72 z" style="fill:url(#linearGradient104)"/></g><rect style="fill:#fff;stroke-width:1.34201" id="rect232" width="158.516" height="121.272" x="-232.993" y="-16.684"/></svg>